{"asset":{"generator":"Khronos glTF Blender I/O v1.0.5","version":"2.0"},"scene":0,"scenes":[{"name":"Scene","nodes":[0]}],"nodes":[{"mesh":0,"name":"esv_int_rear","rotation":[0.7071068286895752,0,0,0.7071067094802856],"scale":[0.009999999776482582,0.009999999776482582,0.009999999776482582]}],"materials":[{"doubleSided":true,"name":"Misc_Interior","pbrMetallicRoughness":{"baseColorFactor":[0.010879498906433582,0.010879498906433582,0.010879498906433582,1],"metallicFactor":0,"roughnessFactor":0.4412772059440613}},{"doubleSided":true,"name":"wood","pbrMetallicRoughness":{"baseColorFactor":[0.052299998700618744,0.029899999499320984,0,1],"metallicFactor":1,"roughnessFactor":0.5527864098548889}},{"doubleSided":true,"name":"Chrome_Bright","pbrMetallicRoughness":{"baseColorFactor":[0.34838709235191345,0.34838709235191345,0.34838709235191345,1],"metallicFactor":1,"roughnessFactor":0}},{"doubleSided":true,"name":"Fabric_Black_Speaker_Mesh","pbrMetallicRoughness":{"baseColorFactor":[0.011571172624826431,0.011571172624826431,0.011571172624826431,1],"metallicFactor":0,"roughnessFactor":1}}],"meshes":[{"name":"Mesh","primitives":[{"attributes":{"POSITION":0,"NORMAL":1,"TEXCOORD_0":2},"indices":3,"material":0},{"attributes":{"POSITION":4,"NORMAL":5,"TEXCOORD_0":6},"indices":7,"material":0},{"attributes":{"POSITION":8,"NORMAL":9,"TEXCOORD_0":10},"indices":11,"material":0},{"attributes":{"POSITION":12,"NORMAL":13,"TEXCOORD_0":14},"indices":15,"material":1},{"attributes":{"POSITION":16,"NORMAL":17,"TEXCOORD_0":18},"indices":19,"material":2},{"attributes":{"POSITION":20,"NORMAL":21,"TEXCOORD_0":22},"indices":23,"material":3}]}],"accessors":[{"bufferView":0,"componentType":5126,"count":65533,"max":[272.0302734375,91.71785736083984,-61.50551986694336],"min":[-91.81221008300781,-91.71785736083984,-194.81285095214844],"type":"VEC3"},{"bufferView":1,"componentType":5126,"count":65533,"type":"VEC3"},{"bufferView":2,"componentType":5126,"count":65533,"type":"VEC2"},{"bufferView":3,"componentType":5123,"count":115053,"type":"SCALAR"},{"bufferView":4,"componentType":5126,"count":42118,"max":[261.4015808105469,89.09120178222656,-60.200035095214844],"min":[-8.8367919921875,-88.30126953125,-192.3064422607422],"type":"VEC3"},{"bufferView":5,"componentType":5126,"count":42118,"type":"VEC3"},{"bufferView":6,"componentType":5126,"count":42118,"type":"VEC2"},{"bufferView":7,"componentType":5123,"count":73881,"type":"SCALAR"},{"bufferView":8,"componentType":5126,"count":6,"max":[137.8916778564453,24.503498077392578,-97.94851684570312],"min":[-53.05033874511719,-42.430267333984375,-183.47940063476562],"type":"VEC3"},{"bufferView":9,"componentType":5126,"count":6,"type":"VEC3"},{"bufferView":10,"componentType":5126,"count":6,"type":"VEC2"},{"bufferView":11,"componentType":5123,"count":6,"type":"SCALAR"},{"bufferView":12,"componentType":5126,"count":702,"max":[76.32858276367188,83.08729553222656,-129.91439819335938],"min":[32.818450927734375,-83.08729553222656,-138.37733459472656],"type":"VEC3"},{"bufferView":13,"componentType":5126,"count":702,"type":"VEC3"},{"bufferView":14,"componentType":5126,"count":702,"type":"VEC2"},{"bufferView":15,"componentType":5123,"count":1338,"type":"SCALAR"},{"bufferView":16,"componentType":5126,"count":1728,"max":[36.55706787109375,82.94561004638672,-128.41331481933594],"min":[21.467559814453125,-82.94561004638672,-131.62501525878906],"type":"VEC3"},{"bufferView":17,"componentType":5126,"count":1728,"type":"VEC3"},{"bufferView":18,"componentType":5126,"count":1728,"type":"VEC2"},{"bufferView":19,"componentType":5123,"count":3516,"type":"SCALAR"},{"bufferView":20,"componentType":5126,"count":2532,"max":[9.1416015625,81.5811767578125,-114.650146484375],"min":[-3.704833984375,-81.5811767578125,-134.1298828125],"type":"VEC3"},{"bufferView":21,"componentType":5126,"count":2532,"type":"VEC3"},{"bufferView":22,"componentType":5126,"count":2532,"type":"VEC2"},{"bufferView":23,"componentType":5123,"count":10533,"type":"SCALAR"}],"bufferViews":[{"buffer":0,"byteLength":786396,"byteOffset":0},{"buffer":0,"byteLength":786396,"byteOffset":786396},{"buffer":0,"byteLength":524264,"byteOffset":1572792},{"buffer":0,"byteLength":230106,"byteOffset":2097056},{"buffer":0,"byteLength":505416,"byteOffset":2327164},{"buffer":0,"byteLength":505416,"byteOffset":2832580},{"buffer":0,"byteLength":336944,"byteOffset":3337996},{"buffer":0,"byteLength":147762,"byteOffset":3674940},{"buffer":0,"byteLength":72,"byteOffset":3822704},{"buffer":0,"byteLength":72,"byteOffset":3822776},{"buffer":0,"byteLength":48,"byteOffset":3822848},{"buffer":0,"byteLength":12,"byteOffset":3822896},{"buffer":0,"byteLength":8424,"byteOffset":3822908},{"buffer":0,"byteLength":8424,"byteOffset":3831332},{"buffer":0,"byteLength":5616,"byteOffset":3839756},{"buffer":0,"byteLength":2676,"byteOffset":3845372},{"buffer":0,"byteLength":20736,"byteOffset":3848048},{"buffer":0,"byteLength":20736,"byteOffset":3868784},{"buffer":0,"byteLength":13824,"byteOffset":3889520},{"buffer":0,"byteLength":7032,"byteOffset":3903344},{"buffer":0,"byteLength":30384,"byteOffset":3910376},{"buffer":0,"byteLength":30384,"byteOffset":3940760},{"buffer":0,"byteLength":20256,"byteOffset":3971144},{"buffer":0,"byteLength":21066,"byteOffset":3991400}],"buffers":[{"byteLength":4012468,"uri":"assets\\esv_int_rear-9cd48306bed45681f93b455d35a8f6ce.bin"}]}