{"asset":{"generator":"Khronos glTF Blender I/O v1.1.46","version":"2.0"},"scene":0,"scenes":[{"name":"Scene","nodes":[0]}],"nodes":[{"mesh":0,"name":"set_ssx_swb_esv_wheel1","rotation":[1,0,0,-1.3435885648505064e-7],"scale":[0.009999999776482582,0.009999999776482582,0.009999999776482582]}],"materials":[{"doubleSided":true,"emissiveFactor":[0,0,0],"name":"combined_texture_maps.004","normalTexture":{"index":0,"texCoord":0},"occlusionTexture":{"index":1,"texCoord":0},"pbrMetallicRoughness":{"baseColorTexture":{"index":2,"texCoord":0},"metallicRoughnessTexture":{"index":1,"texCoord":0}}},{"doubleSided":true,"emissiveFactor":[0,0,0],"name":"set_ssx_wheel_paint","normalTexture":{"index":3,"scale":0.1400168091058731,"texCoord":0},"pbrMetallicRoughness":{"baseColorFactor":[0.3467041254043579,0.34670406579971313,0.3467040956020355,1],"metallicFactor":0.9800000190734863,"roughnessFactor":0.28999999165534973}},{"doubleSided":true,"emissiveFactor":[0,0,0],"name":"galvano_chrome.001","pbrMetallicRoughness":{"baseColorFactor":[0.34838709235191345,0.34838709235191345,0.34838709235191345,1],"metallicFactor":1,"roughnessFactor":-1.2538862228393555}},{"doubleSided":true,"emissiveFactor":[0,0,0],"name":"Paint_Black_Gloss.002","pbrMetallicRoughness":{"baseColorFactor":[0.0117647061124444,0.0117647061124444,0.0117647061124444,1],"metallicFactor":1,"roughnessFactor":-0.6733200550079346}},{"doubleSided":true,"emissiveFactor":[0,0,0],"name":"Chrome_Bright","pbrMetallicRoughness":{"baseColorFactor":[0.3467041254043579,0.34670406579971313,0.3467040956020355,1],"metallicFactor":1,"roughnessFactor":0.23999999463558197}},{"doubleSided":true,"emissiveFactor":[0,0,0],"name":"set_ssx_wheel_paint_inner","pbrMetallicRoughness":{"baseColorFactor":[0.004166523925960064,0.004166523925960064,0.004166523925960064,1],"metallicFactor":0.8899999856948853,"roughnessFactor":0.28999999165534973}}],"meshes":[{"name":"set_ssx_swb_esv_wheel","primitives":[{"attributes":{"POSITION":0,"NORMAL":1,"TEXCOORD_0":2,"TEXCOORD_1":3},"indices":4,"material":0},{"attributes":{"POSITION":5,"NORMAL":6,"TEXCOORD_0":7,"TEXCOORD_1":8},"indices":9,"material":1},{"attributes":{"POSITION":10,"NORMAL":11,"TEXCOORD_0":12,"TEXCOORD_1":13},"indices":14,"material":2},{"attributes":{"POSITION":15,"NORMAL":16,"TEXCOORD_0":17,"TEXCOORD_1":18},"indices":19,"material":3},{"attributes":{"POSITION":20,"NORMAL":21,"TEXCOORD_0":22,"TEXCOORD_1":23},"indices":24,"material":4},{"attributes":{"POSITION":25,"NORMAL":26,"TEXCOORD_0":27,"TEXCOORD_1":28},"indices":29,"material":5}]}],"textures":[{"source":0},{"source":1},{"source":2},{"source":3}],"images":[{"mimeType":"image/png","name":"T_CombineTexMap_normal_2K","uri":"assets\\T_CombineTexMap_normal_2K-ca8219c2d46254263ddebecb33e8d133.png"},{"mimeType":"image/jpeg","name":"T_CombineTexMap_AO-Rough-Metal_2K","uri":"assets\\T_CombineTexMap_AO-Rough-Metal_2K-6196fff7f38a049f192a64d09df3576b.jpg"},{"mimeType":"image/png","name":"T_CombineTexMap_basecolor_2K","uri":"assets\\T_CombineTexMap_basecolor_2K-22c2d115c54164c940c07d03da8ed1ac.png"},{"mimeType":"image/png","name":"T_Wheels_set_ssx_sey_N","uri":"assets\\T_Wheels_set_ssx_sey_N-53d32944723f266db0bbc989780a60bc.png"}],"accessors":[{"bufferView":0,"componentType":5126,"count":3159,"max":[41.854881286621094,41.85487747192383,15.207155227661133],"min":[-41.854881286621094,-41.85487747192383,-15.207155227661133],"type":"VEC3"},{"bufferView":1,"componentType":5126,"count":3159,"type":"VEC3"},{"bufferView":2,"componentType":5126,"count":3159,"type":"VEC2"},{"bufferView":3,"componentType":5126,"count":3159,"type":"VEC2"},{"bufferView":4,"componentType":5123,"count":18240,"type":"SCALAR"},{"bufferView":5,"componentType":5126,"count":7590,"max":[29.91128158569336,29.88872718811035,12.44394302368164],"min":[-29.82601547241211,-29.888690948486328,-13.727485656738281],"type":"VEC3"},{"bufferView":6,"componentType":5126,"count":7590,"type":"VEC3"},{"bufferView":7,"componentType":5126,"count":7590,"type":"VEC2"},{"bufferView":8,"componentType":5126,"count":7590,"type":"VEC2"},{"bufferView":9,"componentType":5123,"count":43167,"type":"SCALAR"},{"bufferView":10,"componentType":5126,"count":2739,"max":[3.68817138671875,1.878180742263794,-7.658149719238281],"min":[-3.730987548828125,-1.0662963390350342,-7.91473388671875],"type":"VEC3"},{"bufferView":11,"componentType":5126,"count":2739,"type":"VEC3"},{"bufferView":12,"componentType":5126,"count":2739,"type":"VEC2"},{"bufferView":13,"componentType":5126,"count":2739,"type":"VEC2"},{"bufferView":14,"componentType":5123,"count":4536,"type":"SCALAR"},{"bufferView":15,"componentType":5126,"count":83,"max":[4.433158874511719,4.427538871765137,-7.259513854980469],"min":[-4.422065734863281,-4.423474311828613,-7.748832702636719],"type":"VEC3"},{"bufferView":16,"componentType":5126,"count":83,"type":"VEC3"},{"bufferView":17,"componentType":5126,"count":83,"type":"VEC2"},{"bufferView":18,"componentType":5126,"count":83,"type":"VEC2"},{"bufferView":19,"componentType":5123,"count":423,"type":"SCALAR"},{"bufferView":20,"componentType":5126,"count":692,"max":[7.989516258239746,8.578864097595215,-5.562283992767334],"min":[-7.795758247375488,-8.507863998413086,-8.758638381958008],"type":"VEC3"},{"bufferView":21,"componentType":5126,"count":692,"type":"VEC3"},{"bufferView":22,"componentType":5126,"count":692,"type":"VEC2"},{"bufferView":23,"componentType":5126,"count":692,"type":"VEC2"},{"bufferView":24,"componentType":5123,"count":936,"type":"SCALAR"},{"bufferView":25,"componentType":5126,"count":42,"max":[26.696983337402344,26.6143741607666,12.397588729858398],"min":[-26.584381103515625,-26.66702651977539,-8.512020111083984],"type":"VEC3"},{"bufferView":26,"componentType":5126,"count":42,"type":"VEC3"},{"bufferView":27,"componentType":5126,"count":42,"type":"VEC2"},{"bufferView":28,"componentType":5126,"count":42,"type":"VEC2"},{"bufferView":29,"componentType":5123,"count":120,"type":"SCALAR"}],"bufferViews":[{"buffer":0,"byteLength":37908,"byteOffset":0},{"buffer":0,"byteLength":37908,"byteOffset":37908},{"buffer":0,"byteLength":25272,"byteOffset":75816},{"buffer":0,"byteLength":25272,"byteOffset":101088},{"buffer":0,"byteLength":36480,"byteOffset":126360},{"buffer":0,"byteLength":91080,"byteOffset":162840},{"buffer":0,"byteLength":91080,"byteOffset":253920},{"buffer":0,"byteLength":60720,"byteOffset":345000},{"buffer":0,"byteLength":60720,"byteOffset":405720},{"buffer":0,"byteLength":86334,"byteOffset":466440},{"buffer":0,"byteLength":32868,"byteOffset":552776},{"buffer":0,"byteLength":32868,"byteOffset":585644},{"buffer":0,"byteLength":21912,"byteOffset":618512},{"buffer":0,"byteLength":21912,"byteOffset":640424},{"buffer":0,"byteLength":9072,"byteOffset":662336},{"buffer":0,"byteLength":996,"byteOffset":671408},{"buffer":0,"byteLength":996,"byteOffset":672404},{"buffer":0,"byteLength":664,"byteOffset":673400},{"buffer":0,"byteLength":664,"byteOffset":674064},{"buffer":0,"byteLength":846,"byteOffset":674728},{"buffer":0,"byteLength":8304,"byteOffset":675576},{"buffer":0,"byteLength":8304,"byteOffset":683880},{"buffer":0,"byteLength":5536,"byteOffset":692184},{"buffer":0,"byteLength":5536,"byteOffset":697720},{"buffer":0,"byteLength":1872,"byteOffset":703256},{"buffer":0,"byteLength":504,"byteOffset":705128},{"buffer":0,"byteLength":504,"byteOffset":705632},{"buffer":0,"byteLength":336,"byteOffset":706136},{"buffer":0,"byteLength":336,"byteOffset":706472},{"buffer":0,"byteLength":240,"byteOffset":706808}],"buffers":[{"byteLength":707048,"uri":"assets\\set_ssx_swb_esv_wheels-ab7e6ebfc2ffcf6622ff300c4d45a7fd.bin"}]}