{"asset":{"generator":"Khronos glTF Blender I/O v1.0.5","version":"2.0"},"scene":0,"scenes":[{"name":"Scene","nodes":[0,7]}],"nodes":[{"mesh":0,"name":"sgg_wheel.001","scale":[0.009999999776482582,0.010000000707805157,0.010000000707805157]},{"mesh":1,"name":"bolt_lugs"},{"mesh":2,"name":"center_cap"},{"mesh":3,"name":"crest"},{"mesh":4,"name":"inner_rim"},{"mesh":5,"name":"rim"},{"mesh":6,"name":"rim_stripes"},{"children":[1,2,3,4,5,6],"name":"SMD_wheel1.001","rotation":[0.7071068286895752,0,0,0.7071067094802856],"scale":[0.009999999776482582,0.009999999776482582,0.009999999776482582]}],"materials":[{"doubleSided":true,"emissiveFactor":[0,0,0],"name":"combined_texture_maps.001","normalTexture":{"index":0,"texCoord":0},"occlusionTexture":{"index":1,"texCoord":0},"pbrMetallicRoughness":{"baseColorTexture":{"index":2,"texCoord":0},"metallicRoughnessTexture":{"index":1,"texCoord":0}}},{"doubleSided":true,"name":"silver.001","pbrMetallicRoughness":{"baseColorFactor":[0.9019622802734375,0.9019622802734375,0.9019622802734375,1],"metallicFactor":1,"roughnessFactor":0.10557281225919724}},{"doubleSided":true,"emissiveFactor":[0,0,0],"name":"Paint_Black_Gloss","pbrMetallicRoughness":{"baseColorFactor":[0.0117647061124444,0.0117647061124444,0.0117647061124444,1],"metallicFactor":1,"roughnessFactor":-0.6733200550079346}},{"doubleSided":true,"name":"Chrome_Bright","pbrMetallicRoughness":{"baseColorFactor":[0.34838709235191345,0.34838709235191345,0.34838709235191345,1],"metallicFactor":1,"roughnessFactor":0}},{"doubleSided":true,"emissiveFactor":[0,0,0],"name":"set_ssx_wheel_paint_inner","pbrMetallicRoughness":{"baseColorFactor":[0.004166523925960064,0.004166523925960064,0.004166523925960064,1],"metallicFactor":0.8899999856948853,"roughnessFactor":0.28999999165534973}},{"doubleSided":true,"emissiveFactor":[0,0,0],"name":"WHL_Dark_Android","pbrMetallicRoughness":{"baseColorFactor":[0.04518623277544975,0.04518623650074005,0.04518623277544975,1],"metallicFactor":1,"roughnessFactor":0}},{"doubleSided":true,"name":"silver","pbrMetallicRoughness":{"baseColorFactor":[0.9019622802734375,0.9019622802734375,0.9019622802734375,1],"metallicFactor":1,"roughnessFactor":0.10557281225919724}}],"meshes":[{"name":"sgg_swb_esv_wheel.001","primitives":[{"attributes":{"POSITION":0,"NORMAL":1,"TEXCOORD_0":2},"indices":3,"material":0}]},{"name":"bolts","primitives":[{"attributes":{"POSITION":4,"NORMAL":5,"TEXCOORD_0":6},"indices":7,"material":1}]},{"name":"cap_center","primitives":[{"attributes":{"POSITION":8,"NORMAL":9,"TEXCOORD_0":10},"indices":11,"material":2}]},{"name":"emblem","primitives":[{"attributes":{"POSITION":12,"NORMAL":13,"TEXCOORD_0":14},"indices":15,"material":3}]},{"name":"rim_inner","primitives":[{"attributes":{"POSITION":16,"NORMAL":17,"TEXCOORD_0":18},"indices":19,"material":4}]},{"name":"main_rim","primitives":[{"attributes":{"POSITION":20,"NORMAL":21,"TEXCOORD_0":22},"indices":23,"material":5}]},{"name":"stripes_rim","primitives":[{"attributes":{"POSITION":24,"NORMAL":25,"TEXCOORD_0":26},"indices":27,"material":6}]}],"textures":[{"source":0},{"source":1},{"source":2}],"images":[{"mimeType":"image/png","name":"T_CombineTexMap_normal_2K","uri":"assets\\T_CombineTexMap_normal_2K-ca8219c2d46254263ddebecb33e8d133.png"},{"mimeType":"image/jpeg","name":"T_CombineTexMap_AO-Rough-Metal_2K","uri":"assets\\T_CombineTexMap_AO-Rough-Metal_2K-6196fff7f38a049f192a64d09df3576b.jpg"},{"mimeType":"image/png","name":"T_CombineTexMap_basecolor_2K","uri":"assets\\T_CombineTexMap_basecolor_2K-22c2d115c54164c940c07d03da8ed1ac.png"}],"accessors":[{"bufferView":0,"componentType":5126,"count":4237,"max":[41.854881286621094,41.85487747192383,15.207155227661133],"min":[-41.854881286621094,-41.85487747192383,-15.207155227661133],"type":"VEC3"},{"bufferView":1,"componentType":5126,"count":4237,"type":"VEC3"},{"bufferView":2,"componentType":5126,"count":4237,"type":"VEC2"},{"bufferView":3,"componentType":5123,"count":20040,"type":"SCALAR"},{"bufferView":4,"componentType":5126,"count":606,"max":[7.8505706787109375,8.546005249023438,8.487876892089844],"min":[-7.794097900390625,5.4016876220703125,-8.521804809570312],"type":"VEC3"},{"bufferView":5,"componentType":5126,"count":606,"type":"VEC3"},{"bufferView":6,"componentType":5126,"count":606,"type":"VEC2"},{"bufferView":7,"componentType":5123,"count":936,"type":"SCALAR"},{"bufferView":8,"componentType":5126,"count":224,"max":[4.1212005615234375,7.703598976135254,4.116813659667969],"min":[-4.0899200439453125,7.02625846862793,-4.094306945800781],"type":"VEC3"},{"bufferView":9,"componentType":5126,"count":224,"type":"VEC3"},{"bufferView":10,"componentType":5126,"count":224,"type":"VEC2"},{"bufferView":11,"componentType":5123,"count":336,"type":"SCALAR"},{"bufferView":12,"componentType":5126,"count":3024,"max":[2.7256317138671875,7.885704040527344,1.2208671569824219],"min":[-2.6911468505859375,7.690589904785156,-0.9289207458496094],"type":"VEC3"},{"bufferView":13,"componentType":5126,"count":3024,"type":"VEC3"},{"bufferView":14,"componentType":5126,"count":3024,"type":"VEC2"},{"bufferView":15,"componentType":5123,"count":4536,"type":"SCALAR"},{"bufferView":16,"componentType":5126,"count":240,"max":[25.185760498046875,9.279273986816406,25.145606994628906],"min":[-25.154632568359375,-10.945381164550781,-25.123077392578125],"type":"VEC3"},{"bufferView":17,"componentType":5126,"count":240,"type":"VEC3"},{"bufferView":18,"componentType":5126,"count":240,"type":"VEC2"},{"bufferView":19,"componentType":5123,"count":360,"type":"SCALAR"},{"bufferView":20,"componentType":5126,"count":26076,"max":[29.974761962890625,13.369720458984375,29.982826232910156],"min":[-30.205642700195312,-11.870170593261719,-30.221206665039062],"type":"VEC3"},{"bufferView":21,"componentType":5126,"count":26076,"type":"VEC3"},{"bufferView":22,"componentType":5126,"count":26076,"type":"VEC2"},{"bufferView":23,"componentType":5123,"count":39168,"type":"SCALAR"},{"bufferView":24,"componentType":5126,"count":762,"max":[29.374374389648438,13.369720458984375,29.755638122558594],"min":[-29.343246459960938,10.46990966796875,-29.733108520507812],"type":"VEC3"},{"bufferView":25,"componentType":5126,"count":762,"type":"VEC3"},{"bufferView":26,"componentType":5126,"count":762,"type":"VEC2"},{"bufferView":27,"componentType":5123,"count":3168,"type":"SCALAR"}],"bufferViews":[{"buffer":0,"byteLength":50844,"byteOffset":0},{"buffer":0,"byteLength":50844,"byteOffset":50844},{"buffer":0,"byteLength":33896,"byteOffset":101688},{"buffer":0,"byteLength":40080,"byteOffset":135584},{"buffer":0,"byteLength":7272,"byteOffset":175664},{"buffer":0,"byteLength":7272,"byteOffset":182936},{"buffer":0,"byteLength":4848,"byteOffset":190208},{"buffer":0,"byteLength":1872,"byteOffset":195056},{"buffer":0,"byteLength":2688,"byteOffset":196928},{"buffer":0,"byteLength":2688,"byteOffset":199616},{"buffer":0,"byteLength":1792,"byteOffset":202304},{"buffer":0,"byteLength":672,"byteOffset":204096},{"buffer":0,"byteLength":36288,"byteOffset":204768},{"buffer":0,"byteLength":36288,"byteOffset":241056},{"buffer":0,"byteLength":24192,"byteOffset":277344},{"buffer":0,"byteLength":9072,"byteOffset":301536},{"buffer":0,"byteLength":2880,"byteOffset":310608},{"buffer":0,"byteLength":2880,"byteOffset":313488},{"buffer":0,"byteLength":1920,"byteOffset":316368},{"buffer":0,"byteLength":720,"byteOffset":318288},{"buffer":0,"byteLength":312912,"byteOffset":319008},{"buffer":0,"byteLength":312912,"byteOffset":631920},{"buffer":0,"byteLength":208608,"byteOffset":944832},{"buffer":0,"byteLength":78336,"byteOffset":1153440},{"buffer":0,"byteLength":9144,"byteOffset":1231776},{"buffer":0,"byteLength":9144,"byteOffset":1240920},{"buffer":0,"byteLength":6096,"byteOffset":1250064},{"buffer":0,"byteLength":6336,"byteOffset":1256160}],"buffers":[{"byteLength":1262496,"uri":"assets\\set_smd_swb_esv_wheels-f1701c19b83181dec3d16e5cbffc0df3.bin"}]}