{"asset":{"generator":"Khronos glTF Blender I/O v1.1.46","version":"2.0"},"scene":0,"scenes":[{"name":"Scene","nodes":[0]}],"nodes":[{"mesh":0,"name":"sey_swb_esv_wheel1","rotation":[1,0,0,-1.3435885648505064e-7],"scale":[0.009999999776482582,0.009999999776482582,0.009999999776482582]}],"materials":[{"doubleSided":true,"emissiveFactor":[0,0,0],"name":"combined_texture_maps.004","normalTexture":{"index":0,"texCoord":0},"occlusionTexture":{"index":1,"texCoord":0},"pbrMetallicRoughness":{"baseColorTexture":{"index":2,"texCoord":0},"metallicRoughnessTexture":{"index":1,"texCoord":0}}},{"doubleSided":true,"emissiveFactor":[0,0,0],"name":"Paint_Black_Gloss","pbrMetallicRoughness":{"baseColorFactor":[0.0117647061124444,0.0117647061124444,0.0117647061124444,1],"metallicFactor":1,"roughnessFactor":1}},{"doubleSided":true,"emissiveFactor":[0,0,0],"name":"polish_cast_aluminum.001","normalTexture":{"index":3,"scale":0.1400168091058731,"texCoord":0},"pbrMetallicRoughness":{"baseColorFactor":[0.18782079219818115,0.18782083690166473,0.18782082200050354,1],"metallicFactor":1,"roughnessFactor":0.15000000596046448}},{"doubleSided":true,"emissiveFactor":[0,0,0],"name":"WHL_Dark_Android1","pbrMetallicRoughness":{"baseColorFactor":[0.04518623277544975,0.04518623650074005,0.04518623277544975,1],"metallicFactor":0.9800000190734863,"roughnessFactor":0.28999999165534973}},{"doubleSided":true,"emissiveFactor":[0,0,0],"name":"galvano_chrome","pbrMetallicRoughness":{"baseColorFactor":[0.34838709235191345,0.34838709235191345,0.34838709235191345,1],"metallicFactor":0.5,"roughnessFactor":-1.2538862228393555}},{"doubleSided":true,"emissiveFactor":[0,0,0],"name":"polish_cast_aluminum_inner","pbrMetallicRoughness":{"baseColorFactor":[0.034903399646282196,0.034903399646282196,0.034903399646282196,1],"metallicFactor":1,"roughnessFactor":0.15000000596046448}}],"meshes":[{"name":"sey_swb_esv_wheel","primitives":[{"attributes":{"POSITION":0,"NORMAL":1,"TEXCOORD_0":2},"indices":3,"material":0},{"attributes":{"POSITION":4,"NORMAL":5,"TEXCOORD_0":6},"indices":7,"material":1},{"attributes":{"POSITION":8,"NORMAL":9,"TEXCOORD_0":10},"indices":11,"material":2},{"attributes":{"POSITION":12,"NORMAL":13,"TEXCOORD_0":14},"indices":15,"material":3},{"attributes":{"POSITION":16,"NORMAL":17,"TEXCOORD_0":18},"indices":19,"material":4},{"attributes":{"POSITION":20,"NORMAL":21,"TEXCOORD_0":22},"indices":23,"material":5}]}],"textures":[{"source":0},{"source":1},{"source":2},{"source":3}],"images":[{"mimeType":"image/png","name":"T_CombineTexMap_normal_2K","uri":"assets\\T_CombineTexMap_normal_2K-ca8219c2d46254263ddebecb33e8d133.png"},{"mimeType":"image/jpeg","name":"T_CombineTexMap_AO-Rough-Metal_2K","uri":"assets\\T_CombineTexMap_AO-Rough-Metal_2K-6196fff7f38a049f192a64d09df3576b.jpg"},{"mimeType":"image/png","name":"T_CombineTexMap_basecolor_2K","uri":"assets\\T_CombineTexMap_basecolor_2K-22c2d115c54164c940c07d03da8ed1ac.png"},{"mimeType":"image/png","name":"T_Wheels_set_ssx_sey_N","uri":"assets\\T_Wheels_set_ssx_sey_N-53d32944723f266db0bbc989780a60bc.png"}],"accessors":[{"bufferView":0,"componentType":5126,"count":3159,"max":[41.854881286621094,41.85487747192383,15.207155227661133],"min":[-41.854881286621094,-41.85487747192383,-15.207155227661133],"type":"VEC3"},{"bufferView":1,"componentType":5126,"count":3159,"type":"VEC3"},{"bufferView":2,"componentType":5126,"count":3159,"type":"VEC2"},{"bufferView":3,"componentType":5123,"count":18240,"type":"SCALAR"},{"bufferView":4,"componentType":5126,"count":120,"max":[3.4477996826171875,3.445812225341797,-9.805877685546875],"min":[-3.430633544921875,-3.4318199157714844,-9.805976867675781],"type":"VEC3"},{"bufferView":5,"componentType":5126,"count":120,"type":"VEC3"},{"bufferView":6,"componentType":5126,"count":120,"type":"VEC2"},{"bufferView":7,"componentType":5123,"count":120,"type":"SCALAR"},{"bufferView":8,"componentType":5126,"count":5649,"max":[29.94455337524414,29.919166564941406,8.354747772216797],"min":[-29.91341781616211,-29.896636962890625,-13.22662353515625],"type":"VEC3"},{"bufferView":9,"componentType":5126,"count":5649,"type":"VEC3"},{"bufferView":10,"componentType":5126,"count":5649,"type":"VEC2"},{"bufferView":11,"componentType":5123,"count":27612,"type":"SCALAR"},{"bufferView":12,"componentType":5126,"count":5660,"max":[29.215017318725586,29.161203384399414,8.288143157958984],"min":[-29.183927536010742,-29.1386661529541,-13.22662353515625],"type":"VEC3"},{"bufferView":13,"componentType":5126,"count":5660,"type":"VEC3"},{"bufferView":14,"componentType":5126,"count":5660,"type":"VEC2"},{"bufferView":15,"componentType":5123,"count":28980,"type":"SCALAR"},{"bufferView":16,"componentType":5126,"count":1190,"max":[2.6790049076080322,1.2179882526397705,-9.745282173156738],"min":[-2.682680130004883,-0.9099348783493042,-9.930683135986328],"type":"VEC3"},{"bufferView":17,"componentType":5126,"count":1190,"type":"VEC3"},{"bufferView":18,"componentType":5126,"count":1190,"type":"VEC2"},{"bufferView":19,"componentType":5123,"count":4536,"type":"SCALAR"},{"bufferView":20,"componentType":5126,"count":76,"max":[27.48779296875,27.33238410949707,11.926597595214844],"min":[-27.4595947265625,-27.427818298339844,-8.973464965820312],"type":"VEC3"},{"bufferView":21,"componentType":5126,"count":76,"type":"VEC3"},{"bufferView":22,"componentType":5126,"count":76,"type":"VEC2"},{"bufferView":23,"componentType":5123,"count":216,"type":"SCALAR"}],"bufferViews":[{"buffer":0,"byteLength":37908,"byteOffset":0},{"buffer":0,"byteLength":37908,"byteOffset":37908},{"buffer":0,"byteLength":25272,"byteOffset":75816},{"buffer":0,"byteLength":36480,"byteOffset":101088},{"buffer":0,"byteLength":1440,"byteOffset":137568},{"buffer":0,"byteLength":1440,"byteOffset":139008},{"buffer":0,"byteLength":960,"byteOffset":140448},{"buffer":0,"byteLength":240,"byteOffset":141408},{"buffer":0,"byteLength":67788,"byteOffset":141648},{"buffer":0,"byteLength":67788,"byteOffset":209436},{"buffer":0,"byteLength":45192,"byteOffset":277224},{"buffer":0,"byteLength":55224,"byteOffset":322416},{"buffer":0,"byteLength":67920,"byteOffset":377640},{"buffer":0,"byteLength":67920,"byteOffset":445560},{"buffer":0,"byteLength":45280,"byteOffset":513480},{"buffer":0,"byteLength":57960,"byteOffset":558760},{"buffer":0,"byteLength":14280,"byteOffset":616720},{"buffer":0,"byteLength":14280,"byteOffset":631000},{"buffer":0,"byteLength":9520,"byteOffset":645280},{"buffer":0,"byteLength":9072,"byteOffset":654800},{"buffer":0,"byteLength":912,"byteOffset":663872},{"buffer":0,"byteLength":912,"byteOffset":664784},{"buffer":0,"byteLength":608,"byteOffset":665696},{"buffer":0,"byteLength":432,"byteOffset":666304}],"buffers":[{"byteLength":666736,"uri":"assets\\sey_swb_esv_wheels-c4fcaa45ee1790ffa21d17c4ce51a4a1.bin"}]}