{"asset":{"generator":"Khronos glTF Blender I/O v1.1.46","version":"2.0"},"scene":0,"scenes":[{"name":"Scene","nodes":[0]}],"nodes":[{"mesh":0,"name":"sgg_wheel","rotation":[1,0,0,-1.3435885648505064e-7],"scale":[0.009999999776482582,0.009999999776482582,0.009999999776482582]}],"materials":[{"doubleSided":true,"emissiveFactor":[0,0,0],"name":"galvano_chrome","pbrMetallicRoughness":{"baseColorFactor":[0.34838709235191345,0.34838709235191345,0.34838709235191345,1],"metallicFactor":0.5,"roughnessFactor":-1.2538862228393555}},{"doubleSided":true,"emissiveFactor":[0,0,0],"name":"Paint_Black_Gloss","pbrMetallicRoughness":{"baseColorFactor":[0.0117647061124444,0.0117647061124444,0.0117647061124444,1],"metallicFactor":1,"roughnessFactor":1}},{"doubleSided":true,"emissiveFactor":[0,0,0],"name":"Chrome_Bright","pbrMetallicRoughness":{"baseColorFactor":[0.3467041254043579,0.34670406579971313,0.3467040956020355,1],"metallicFactor":1,"roughnessFactor":0.23999999463558197}},{"doubleSided":true,"emissiveFactor":[0,0,0],"name":"WHL_Dark_Android","pbrMetallicRoughness":{"baseColorFactor":[0.04518623277544975,0.04518623650074005,0.04518623277544975,1],"metallicFactor":1,"roughnessFactor":0}},{"doubleSided":true,"emissiveFactor":[0,0,0],"name":"combined_texture_maps.004","normalTexture":{"index":0,"texCoord":0},"occlusionTexture":{"index":1,"texCoord":0},"pbrMetallicRoughness":{"baseColorTexture":{"index":2,"texCoord":0},"metallicRoughnessTexture":{"index":1,"texCoord":0}}},{"doubleSided":true,"emissiveFactor":[0,0,0],"name":"dark_innner","pbrMetallicRoughness":{"baseColorFactor":[0.051269471645355225,0.051269471645355225,0.051269467920064926,1],"metallicFactor":1,"roughnessFactor":0.9818181991577148}}],"meshes":[{"name":"sgg_swb_esv_wheel","primitives":[{"attributes":{"POSITION":0,"NORMAL":1,"TEXCOORD_0":2},"indices":3,"material":0},{"attributes":{"POSITION":4,"NORMAL":5,"TEXCOORD_0":6},"indices":7,"material":1},{"attributes":{"POSITION":8,"NORMAL":9,"TEXCOORD_0":10},"indices":11,"material":2},{"attributes":{"POSITION":12,"NORMAL":13,"TEXCOORD_0":14},"indices":15,"material":3},{"attributes":{"POSITION":16,"NORMAL":17,"TEXCOORD_0":18},"indices":19,"material":4},{"attributes":{"POSITION":20,"NORMAL":21,"TEXCOORD_0":22},"indices":23,"material":5}]}],"textures":[{"source":0},{"source":1},{"source":2}],"images":[{"mimeType":"image/png","name":"T_CombineTexMap_normal_2K","uri":"assets\\T_CombineTexMap_normal_2K-ca8219c2d46254263ddebecb33e8d133.png"},{"mimeType":"image/jpeg","name":"T_CombineTexMap_AO-Rough-Metal_2K","uri":"assets\\T_CombineTexMap_AO-Rough-Metal_2K-6196fff7f38a049f192a64d09df3576b.jpg"},{"mimeType":"image/png","name":"T_CombineTexMap_basecolor_2K","uri":"assets\\T_CombineTexMap_basecolor_2K-22c2d115c54164c940c07d03da8ed1ac.png"}],"accessors":[{"bufferView":0,"componentType":5126,"count":2767,"max":[2.64471435546875,1.2667503356933594,-9.546012878417969],"min":[-2.772064208984375,-0.8830337524414062,-9.741127014160156],"type":"VEC3"},{"bufferView":1,"componentType":5126,"count":2767,"type":"VEC3"},{"bufferView":2,"componentType":5126,"count":2767,"type":"VEC2"},{"bufferView":3,"componentType":5123,"count":4536,"type":"SCALAR"},{"bufferView":4,"componentType":5126,"count":1472,"max":[3.3860015869140625,3.473419189453125,-9.589103698730469],"min":[-3.492462158203125,-3.4042205810546875,-9.611305236816406],"type":"VEC3"},{"bufferView":5,"componentType":5126,"count":1472,"type":"VEC3"},{"bufferView":6,"componentType":5126,"count":1472,"type":"VEC2"},{"bufferView":7,"componentType":5123,"count":2064,"type":"SCALAR"},{"bufferView":8,"componentType":5126,"count":11662,"max":[29.865829467773438,29.917797088623047,-5.9130401611328125],"min":[-29.961273193359375,-29.878002166748047,-12.977851867675781],"type":"VEC3"},{"bufferView":9,"componentType":5126,"count":11662,"type":"VEC3"},{"bufferView":10,"componentType":5126,"count":11662,"type":"VEC2"},{"bufferView":11,"componentType":5123,"count":58920,"type":"SCALAR"},{"bufferView":12,"componentType":5126,"count":5780,"max":[27.47418212890625,27.610809326171875,-7.170585632324219],"min":[-27.5811767578125,-27.570690155029297,-11.747276306152344],"type":"VEC3"},{"bufferView":13,"componentType":5126,"count":5780,"type":"VEC3"},{"bufferView":14,"componentType":5126,"count":5780,"type":"VEC2"},{"bufferView":15,"componentType":5123,"count":30450,"type":"SCALAR"},{"bufferView":16,"componentType":5126,"count":3159,"max":[41.854881286621094,41.85487747192383,15.207155227661133],"min":[-41.854881286621094,-41.85487747192383,-15.207155227661133],"type":"VEC3"},{"bufferView":17,"componentType":5126,"count":3159,"type":"VEC3"},{"bufferView":18,"componentType":5126,"count":3159,"type":"VEC2"},{"bufferView":19,"componentType":5123,"count":18240,"type":"SCALAR"},{"bufferView":20,"componentType":5126,"count":316,"max":[28.039291381835938,28.165721893310547,11.895980834960938],"min":[-28.134735107421875,-28.125926971435547,-9.567741394042969],"type":"VEC3"},{"bufferView":21,"componentType":5126,"count":316,"type":"VEC3"},{"bufferView":22,"componentType":5126,"count":316,"type":"VEC2"},{"bufferView":23,"componentType":5123,"count":786,"type":"SCALAR"}],"bufferViews":[{"buffer":0,"byteLength":33204,"byteOffset":0},{"buffer":0,"byteLength":33204,"byteOffset":33204},{"buffer":0,"byteLength":22136,"byteOffset":66408},{"buffer":0,"byteLength":9072,"byteOffset":88544},{"buffer":0,"byteLength":17664,"byteOffset":97616},{"buffer":0,"byteLength":17664,"byteOffset":115280},{"buffer":0,"byteLength":11776,"byteOffset":132944},{"buffer":0,"byteLength":4128,"byteOffset":144720},{"buffer":0,"byteLength":139944,"byteOffset":148848},{"buffer":0,"byteLength":139944,"byteOffset":288792},{"buffer":0,"byteLength":93296,"byteOffset":428736},{"buffer":0,"byteLength":117840,"byteOffset":522032},{"buffer":0,"byteLength":69360,"byteOffset":639872},{"buffer":0,"byteLength":69360,"byteOffset":709232},{"buffer":0,"byteLength":46240,"byteOffset":778592},{"buffer":0,"byteLength":60900,"byteOffset":824832},{"buffer":0,"byteLength":37908,"byteOffset":885732},{"buffer":0,"byteLength":37908,"byteOffset":923640},{"buffer":0,"byteLength":25272,"byteOffset":961548},{"buffer":0,"byteLength":36480,"byteOffset":986820},{"buffer":0,"byteLength":3792,"byteOffset":1023300},{"buffer":0,"byteLength":3792,"byteOffset":1027092},{"buffer":0,"byteLength":2528,"byteOffset":1030884},{"buffer":0,"byteLength":1572,"byteOffset":1033412}],"buffers":[{"byteLength":1034984,"uri":"assets\\sgg_swb_esv_wheels-a204fdf496af44ab28f3370de1f6fd6c.bin"}]}