{"asset":{"generator":"Khronos glTF Blender I/O v1.0.5","version":"2.0"},"scene":0,"scenes":[{"name":"Scene","nodes":[0,1,2,3,4,5]}],"nodes":[{"name":"swb_esv_common","rotation":[-0.7071065902709961,0,0,0.7071069478988647],"scale":[0.009999999776482582,0.010000000707805157,0.010000000707805157]},{"mesh":0,"name":"common_black_smooth","rotation":[0.7071068286895752,0,0,0.7071067094802856],"scale":[0.009999999776482582,0.009999999776482582,0.009999999776482582]},{"mesh":1,"name":"common_combined_meshes","rotation":[0.7071068286895752,0,0,0.7071067094802856],"scale":[0.009999999776482582,0.009999999776482582,0.009999999776482582]},{"mesh":2,"name":"common_front_emblem","rotation":[0.7071068286895752,0,0,0.7071067094802856],"scale":[0.009999999776482582,0.009999999776482582,0.009999999776482582]},{"mesh":3,"name":"common_galvano_silver","rotation":[0.7071068286895752,0,0,0.7071067094802856],"scale":[0.009999999776482582,0.009999999776482582,0.009999999776482582]},{"mesh":4,"name":"common_window_glass","rotation":[0.7071068286895752,0,0,0.7071067094802856],"scale":[0.009999999776482582,0.009999999776482582,0.009999999776482582]}],"materials":[{"doubleSided":true,"name":"Plastic_Black_Smooth.001","pbrMetallicRoughness":{"baseColorFactor":[0.014349875040352345,0.014349875040352345,0.014349875040352345,1],"metallicFactor":1,"roughnessFactor":1}},{"doubleSided":true,"name":"combined_reflector","normalTexture":{"index":0,"scale":0.14000000059604645,"texCoord":0},"pbrMetallicRoughness":{"baseColorTexture":{"index":1,"texCoord":0},"metallicRoughnessTexture":{"index":2,"texCoord":0}}},{"doubleSided":true,"name":"Graphics_Grey.001","pbrMetallicRoughness":{"baseColorFactor":[0.051277339458465576,0.051277339458465576,0.051277339458465576,1],"metallicFactor":1,"roughnessFactor":0.10000000149011612}},{"doubleSided":true,"name":"Graphics_Blue.001","pbrMetallicRoughness":{"baseColorFactor":[0,0,0.588240385055542,1],"metallicFactor":1,"roughnessFactor":0.10000000149011612}},{"doubleSided":true,"name":"Paint_Galvano_Silver.001","pbrMetallicRoughness":{"baseColorFactor":[1,1,1,1],"metallicFactor":1,"roughnessFactor":0}},{"doubleSided":true,"name":"representative_glass","pbrMetallicRoughness":{"baseColorFactor":[0,0,0,1],"metallicFactor":0.7772727012634277,"roughnessFactor":0}}],"meshes":[{"name":"black_smooth_common","primitives":[{"attributes":{"POSITION":0,"NORMAL":1,"TEXCOORD_0":2},"indices":3,"material":0}]},{"name":"combined_meshes_common","primitives":[{"attributes":{"POSITION":4,"NORMAL":5,"TEXCOORD_0":6},"indices":7,"material":1}]},{"name":"front_emblem_common","primitives":[{"attributes":{"POSITION":8,"NORMAL":9,"TEXCOORD_0":10},"indices":11,"material":2},{"attributes":{"POSITION":12,"NORMAL":13,"TEXCOORD_0":14},"indices":15,"material":3}]},{"name":"galvano_paint_common","primitives":[{"attributes":{"POSITION":16,"NORMAL":17,"TEXCOORD_0":18},"indices":19,"material":4}]},{"name":"window_glass_common","primitives":[{"attributes":{"POSITION":20,"NORMAL":21,"TEXCOORD_0":22},"indices":23,"material":5}]}],"textures":[{"source":0},{"source":1},{"source":2}],"images":[{"mimeType":"image/jpeg","name":"T_CombineTexMap_normal_2K","uri":"assets\\T_CombineTexMap_normal_2K-21a1db09b0d406316b0eaa660065c90a.jpg"},{"mimeType":"image/jpeg","name":"T_CombineTexMap_basecolor_2K","uri":"assets\\T_CombineTexMap_basecolor_2K-e947907f5367e7773d792f87f44e656a.jpg"},{"mimeType":"image/jpeg","name":"T_CombineTexMap_AO-Rough-Metal_2K","uri":"assets\\T_CombineTexMap_AO-Rough-Metal_2K-44bd8a68ac5bb484dffc3cb3d69adf0d.jpg"}],"accessors":[{"bufferView":0,"componentType":5126,"count":18856,"max":[-268.3048095703125,59.65227508544922,-78.092041015625],"min":[-287.91656494140625,-59.65227508544922,-117.74847412109375],"type":"VEC3"},{"bufferView":1,"componentType":5126,"count":18856,"type":"VEC3"},{"bufferView":2,"componentType":5126,"count":18856,"type":"VEC2"},{"bufferView":3,"componentType":5123,"count":28284,"type":"SCALAR"},{"bufferView":4,"componentType":5126,"count":952,"max":[-286.6154479980469,7.994501113891602,-102.97666931152344],"min":[-288.35955810546875,-8.809141159057617,-110.8699951171875],"type":"VEC3"},{"bufferView":5,"componentType":5126,"count":952,"type":"VEC3"},{"bufferView":6,"componentType":5126,"count":952,"type":"VEC2"},{"bufferView":7,"componentType":5123,"count":1428,"type":"SCALAR"},{"bufferView":8,"componentType":5126,"count":160,"max":[-286.8067932128906,7.624952793121338,-105.03968811035156],"min":[-288.3153991699219,-8.04736328125,-109.5360107421875],"type":"VEC3"},{"bufferView":9,"componentType":5126,"count":160,"type":"VEC3"},{"bufferView":10,"componentType":5126,"count":160,"type":"VEC2"},{"bufferView":11,"componentType":5123,"count":240,"type":"SCALAR"},{"bufferView":12,"componentType":5126,"count":268,"max":[-286.694091796875,8.466835975646973,-104.31881713867188],"min":[-288.27545166015625,-7.293251037597656,-110.36286163330078],"type":"VEC3"},{"bufferView":13,"componentType":5126,"count":268,"type":"VEC3"},{"bufferView":14,"componentType":5126,"count":268,"type":"VEC2"},{"bufferView":15,"componentType":5123,"count":402,"type":"SCALAR"},{"bufferView":16,"componentType":5126,"count":9832,"max":[-270.5346374511719,58.46533203125,-81.75038146972656],"min":[-288.4559020996094,-58.46533203125,-115.41783905029297],"type":"VEC3"},{"bufferView":17,"componentType":5126,"count":9832,"type":"VEC3"},{"bufferView":18,"componentType":5126,"count":9832,"type":"VEC2"},{"bufferView":19,"componentType":5123,"count":14748,"type":"SCALAR"},{"bufferView":20,"componentType":5126,"count":53,"max":[-285.1368103027344,0.9573779702186584,-97.51214599609375],"min":[-285.9447937011719,-0.9573779702186584,-99.35289764404297],"type":"VEC3"},{"bufferView":21,"componentType":5126,"count":53,"type":"VEC3"},{"bufferView":22,"componentType":5126,"count":53,"type":"VEC2"},{"bufferView":23,"componentType":5123,"count":264,"type":"SCALAR"}],"bufferViews":[{"buffer":0,"byteLength":226272,"byteOffset":0},{"buffer":0,"byteLength":226272,"byteOffset":226272},{"buffer":0,"byteLength":150848,"byteOffset":452544},{"buffer":0,"byteLength":56568,"byteOffset":603392},{"buffer":0,"byteLength":11424,"byteOffset":659960},{"buffer":0,"byteLength":11424,"byteOffset":671384},{"buffer":0,"byteLength":7616,"byteOffset":682808},{"buffer":0,"byteLength":2856,"byteOffset":690424},{"buffer":0,"byteLength":1920,"byteOffset":693280},{"buffer":0,"byteLength":1920,"byteOffset":695200},{"buffer":0,"byteLength":1280,"byteOffset":697120},{"buffer":0,"byteLength":480,"byteOffset":698400},{"buffer":0,"byteLength":3216,"byteOffset":698880},{"buffer":0,"byteLength":3216,"byteOffset":702096},{"buffer":0,"byteLength":2144,"byteOffset":705312},{"buffer":0,"byteLength":804,"byteOffset":707456},{"buffer":0,"byteLength":117984,"byteOffset":708260},{"buffer":0,"byteLength":117984,"byteOffset":826244},{"buffer":0,"byteLength":78656,"byteOffset":944228},{"buffer":0,"byteLength":29496,"byteOffset":1022884},{"buffer":0,"byteLength":636,"byteOffset":1052380},{"buffer":0,"byteLength":636,"byteOffset":1053016},{"buffer":0,"byteLength":424,"byteOffset":1053652},{"buffer":0,"byteLength":528,"byteOffset":1054076}],"buffers":[{"byteLength":1054604,"uri":"assets\\swb_esv_common_stand_grill-faf681bb448d1aad1ccf744380aaa613.bin"}]}