{"asset":{"generator":"Khronos glTF Blender I/O v1.0.5","version":"2.0"},"scene":0,"scenes":[{"name":"Scene","nodes":[0,1,2,3]}],"nodes":[{"mesh":0,"name":"common_grill","rotation":[1,0,0,-1.3435885648505064e-7],"scale":[0.009999999776482582,0.009999999776482582,0.009999999776482582]},{"mesh":1,"name":"common_galvano_silver","rotation":[1,0,0,-1.3435885648505064e-7],"scale":[0.009999999776482582,0.009999999776482582,0.009999999776482582]},{"mesh":2,"name":"common_combined_meshes","rotation":[1,0,0,-1.3435885648505064e-7],"scale":[0.009999999776482582,0.009999999776482582,0.009999999776482582]},{"mesh":3,"name":"common_front_emblem","rotation":[1,0,0,-1.3435885648505064e-7],"scale":[0.009999999776482582,0.009999999776482582,0.009999999776482582]}],"materials":[{"alphaMode":"BLEND","doubleSided":true,"name":"grill_mat","normalTexture":{"index":0,"texCoord":0},"pbrMetallicRoughness":{"baseColorTexture":{"index":1,"texCoord":0},"metallicRoughnessTexture":{"index":2,"texCoord":0}}},{"doubleSided":true,"name":"Paint_Galvano_Silver.001","pbrMetallicRoughness":{"baseColorFactor":[1,1,1,1],"metallicFactor":1,"roughnessFactor":0}},{"doubleSided":true,"name":"combined_reflector","normalTexture":{"index":3,"scale":0.14000000059604645,"texCoord":0},"pbrMetallicRoughness":{"baseColorTexture":{"index":4,"texCoord":0},"metallicRoughnessTexture":{"index":5,"texCoord":0}}},{"doubleSided":true,"name":"Graphics_Blue","pbrMetallicRoughness":{"baseColorFactor":[0,0,0.588240385055542,1],"metallicFactor":1,"roughnessFactor":0.10000000149011612}},{"doubleSided":true,"name":"Graphics_Grey","pbrMetallicRoughness":{"baseColorFactor":[0.051277339458465576,0.051277339458465576,0.051277339458465576,1],"metallicFactor":1,"roughnessFactor":0.10000000149011612}}],"meshes":[{"name":"grill_common","primitives":[{"attributes":{"POSITION":0,"NORMAL":1,"TEXCOORD_0":2},"indices":3,"material":0}]},{"name":"galvano_paint_common","primitives":[{"attributes":{"POSITION":4,"NORMAL":5,"TEXCOORD_0":6},"indices":7,"material":1}]},{"name":"combined_meshes_common","primitives":[{"attributes":{"POSITION":8,"NORMAL":9,"TEXCOORD_0":10},"indices":11,"material":2}]},{"name":"front_emblem_common","primitives":[{"attributes":{"POSITION":12,"NORMAL":13,"TEXCOORD_0":14},"indices":15,"material":3},{"attributes":{"POSITION":16,"NORMAL":17,"TEXCOORD_0":18},"indices":19,"material":4}]}],"textures":[{"source":0},{"source":1},{"source":2},{"source":3},{"source":4},{"source":5}],"images":[{"mimeType":"image/jpeg","name":"2021_T1XX_SportGrill_Paint_GMSF001_Black_8555_normal","uri":"assets\\2021_T1XX_SportGrill_Paint_GMSF001_Black_8555_normal-3a920066b266566903f56e41a730cb9b.jpg"},{"mimeType":"image/jpeg","name":"2021_T1XX_SportGrill_Paint_GMSF001_Black_8555_basecolor","uri":"assets\\2021_T1XX_SportGrill_Paint_GMSF001_Black_8555_basecolor-10a09934d214e52b71ad9b54ea31d593.jpg"},{"mimeType":"image/jpeg","name":"2021_T1XX_SportGrill_Paint_GMSF001_Black_8555_metallic-2021_T1XX_SportGrill_Paint_GMSF001_Black_8555_roughness","uri":"assets\\2021_T1XX_SportGrill_Paint_GMSF001_Black_8555_metallic-2021_T1XX_SportGrill_Paint_GMSF001_Black_8555_roughness-b83230a0d488371a76dbfdd25a91c15f.jpg"},{"mimeType":"image/jpeg","name":"T_CombineTexMap_normal_2K","uri":"assets\\T_CombineTexMap_normal_2K-21a1db09b0d406316b0eaa660065c90a.jpg"},{"mimeType":"image/jpeg","name":"T_CombineTexMap_basecolor_2K","uri":"assets\\T_CombineTexMap_basecolor_2K-e947907f5367e7773d792f87f44e656a.jpg"},{"mimeType":"image/jpeg","name":"T_CombineTexMap_AO-Rough-Metal_2K","uri":"assets\\T_CombineTexMap_AO-Rough-Metal_2K-44bd8a68ac5bb484dffc3cb3d69adf0d.jpg"}],"accessors":[{"bufferView":0,"componentType":5126,"count":1328,"max":[-270.3896484375,-77.12434387207031,59.78125762939453],"min":[-286.128173828125,-117.35064697265625,-59.78125762939453],"type":"VEC3"},{"bufferView":1,"componentType":5126,"count":1328,"type":"VEC3"},{"bufferView":2,"componentType":5126,"count":1328,"type":"VEC2"},{"bufferView":3,"componentType":5123,"count":1992,"type":"SCALAR"},{"bufferView":4,"componentType":5126,"count":1654,"max":[-283.9693603515625,-101.58503723144531,13.311348915100098],"min":[-286.6051940917969,-112.05807495117188,-13.311348915100098],"type":"VEC3"},{"bufferView":5,"componentType":5126,"count":1654,"type":"VEC3"},{"bufferView":6,"componentType":5126,"count":1654,"type":"VEC2"},{"bufferView":7,"componentType":5123,"count":2466,"type":"SCALAR"},{"bufferView":8,"componentType":5126,"count":1114,"max":[-284.7413024902344,-102.73347473144531,8.921366691589355],"min":[-286.50762939453125,-110.72735595703125,-8.09634780883789],"type":"VEC3"},{"bufferView":9,"componentType":5126,"count":1114,"type":"VEC3"},{"bufferView":10,"componentType":5126,"count":1114,"type":"VEC2"},{"bufferView":11,"componentType":5123,"count":1428,"type":"SCALAR"},{"bufferView":12,"componentType":5126,"count":292,"max":[-284.8209533691406,-104.09272003173828,7.386164665222168],"min":[-286.42242431640625,-110.2137680053711,-8.574700355529785],"type":"VEC3"},{"bufferView":13,"componentType":5126,"count":292,"type":"VEC3"},{"bufferView":14,"componentType":5126,"count":292,"type":"VEC2"},{"bufferView":15,"componentType":5123,"count":402,"type":"SCALAR"},{"bufferView":16,"componentType":5126,"count":168,"max":[-284.9350891113281,-104.8227767944336,8.149884223937988],"min":[-286.462890625,-109.37638092041016,-7.722092151641846],"type":"VEC3"},{"bufferView":17,"componentType":5126,"count":168,"type":"VEC3"},{"bufferView":18,"componentType":5126,"count":168,"type":"VEC2"},{"bufferView":19,"componentType":5123,"count":240,"type":"SCALAR"}],"bufferViews":[{"buffer":0,"byteLength":15936,"byteOffset":0},{"buffer":0,"byteLength":15936,"byteOffset":15936},{"buffer":0,"byteLength":10624,"byteOffset":31872},{"buffer":0,"byteLength":3984,"byteOffset":42496},{"buffer":0,"byteLength":19848,"byteOffset":46480},{"buffer":0,"byteLength":19848,"byteOffset":66328},{"buffer":0,"byteLength":13232,"byteOffset":86176},{"buffer":0,"byteLength":4932,"byteOffset":99408},{"buffer":0,"byteLength":13368,"byteOffset":104340},{"buffer":0,"byteLength":13368,"byteOffset":117708},{"buffer":0,"byteLength":8912,"byteOffset":131076},{"buffer":0,"byteLength":2856,"byteOffset":139988},{"buffer":0,"byteLength":3504,"byteOffset":142844},{"buffer":0,"byteLength":3504,"byteOffset":146348},{"buffer":0,"byteLength":2336,"byteOffset":149852},{"buffer":0,"byteLength":804,"byteOffset":152188},{"buffer":0,"byteLength":2016,"byteOffset":152992},{"buffer":0,"byteLength":2016,"byteOffset":155008},{"buffer":0,"byteLength":1344,"byteOffset":157024},{"buffer":0,"byteLength":480,"byteOffset":158368}],"buffers":[{"byteLength":158848,"uri":"assets\\swb_esv_common_sport_grill-b3d2ed6ae82a09b2100492ef2a4b0f6a.bin"}]}