{"asset":{"generator":"Khronos glTF Blender I/O v1.0.5","version":"2.0"},"scene":0,"scenes":[{"name":"Scene","nodes":[0]}],"nodes":[{"mesh":0,"name":"swb_int_rear","rotation":[0.7071068286895752,0,0,0.7071067094802856],"scale":[0.009999999776482582,0.009999999776482582,0.009999999776482582]}],"materials":[{"doubleSided":true,"name":"Misc_Interior","pbrMetallicRoughness":{"baseColorFactor":[0.010879498906433582,0.010879498906433582,0.010879498906433582,1],"metallicFactor":0,"roughnessFactor":0.4412772059440613}},{"doubleSided":true,"name":"Fabric_Black_Speaker_Mesh","pbrMetallicRoughness":{"baseColorFactor":[0.011571172624826431,0.011571172624826431,0.011571172624826431,1],"metallicFactor":0,"roughnessFactor":1}},{"doubleSided":true,"name":"Chrome_Bright","pbrMetallicRoughness":{"baseColorFactor":[0.34838709235191345,0.34838709235191345,0.34838709235191345,1],"metallicFactor":1,"roughnessFactor":0}},{"doubleSided":true,"name":"wood","pbrMetallicRoughness":{"baseColorFactor":[0.052299998700618744,0.029899999499320984,0,1],"metallicFactor":1,"roughnessFactor":0.5527864098548889}}],"meshes":[{"name":"Mesh.008","primitives":[{"attributes":{"POSITION":0,"NORMAL":1,"TEXCOORD_0":2},"indices":3,"material":0},{"attributes":{"POSITION":4,"NORMAL":5,"TEXCOORD_0":6},"indices":7,"material":1},{"attributes":{"POSITION":8,"NORMAL":9,"TEXCOORD_0":10},"indices":11,"material":2},{"attributes":{"POSITION":12,"NORMAL":13,"TEXCOORD_0":14},"indices":15,"material":3}]}],"accessors":[{"bufferView":0,"componentType":5126,"count":44482,"max":[233.90899658203125,91.10993194580078,-60.39771270751953],"min":[-91.81221008300781,-91.10993194580078,-194.81285095214844],"type":"VEC3"},{"bufferView":1,"componentType":5126,"count":44482,"type":"VEC3"},{"bufferView":2,"componentType":5126,"count":44482,"type":"VEC2"},{"bufferView":3,"componentType":5123,"count":76116,"type":"SCALAR"},{"bufferView":4,"componentType":5126,"count":1096,"max":[9.1416015625,81.5811767578125,-114.650146484375],"min":[-3.704833984375,-81.5811767578125,-134.1298828125],"type":"VEC3"},{"bufferView":5,"componentType":5126,"count":1096,"type":"VEC3"},{"bufferView":6,"componentType":5126,"count":1096,"type":"VEC2"},{"bufferView":7,"componentType":5123,"count":4569,"type":"SCALAR"},{"bufferView":8,"componentType":5126,"count":834,"max":[36.55706787109375,82.94558715820312,-128.41331481933594],"min":[21.467559814453125,-82.94562530517578,-131.62501525878906],"type":"VEC3"},{"bufferView":9,"componentType":5126,"count":834,"type":"VEC3"},{"bufferView":10,"componentType":5126,"count":834,"type":"VEC2"},{"bufferView":11,"componentType":5123,"count":1656,"type":"SCALAR"},{"bufferView":12,"componentType":5126,"count":210,"max":[76.33065795898438,83.06523132324219,-129.95443725585938],"min":[32.802734375,-83.06529235839844,-138.39642333984375],"type":"VEC3"},{"bufferView":13,"componentType":5126,"count":210,"type":"VEC3"},{"bufferView":14,"componentType":5126,"count":210,"type":"VEC2"},{"bufferView":15,"componentType":5123,"count":912,"type":"SCALAR"}],"bufferViews":[{"buffer":0,"byteLength":533784,"byteOffset":0},{"buffer":0,"byteLength":533784,"byteOffset":533784},{"buffer":0,"byteLength":355856,"byteOffset":1067568},{"buffer":0,"byteLength":152232,"byteOffset":1423424},{"buffer":0,"byteLength":13152,"byteOffset":1575656},{"buffer":0,"byteLength":13152,"byteOffset":1588808},{"buffer":0,"byteLength":8768,"byteOffset":1601960},{"buffer":0,"byteLength":9138,"byteOffset":1610728},{"buffer":0,"byteLength":10008,"byteOffset":1619868},{"buffer":0,"byteLength":10008,"byteOffset":1629876},{"buffer":0,"byteLength":6672,"byteOffset":1639884},{"buffer":0,"byteLength":3312,"byteOffset":1646556},{"buffer":0,"byteLength":2520,"byteOffset":1649868},{"buffer":0,"byteLength":2520,"byteOffset":1652388},{"buffer":0,"byteLength":1680,"byteOffset":1654908},{"buffer":0,"byteLength":1824,"byteOffset":1656588}],"buffers":[{"byteLength":1658412,"uri":"assets\\swb_int_rear-87e60c778c0f023a9bc940bb2c57eb54.bin"}]}