{"asset":{"generator":"Khronos glTF Blender I/O v1.0.5","version":"2.0"},"extensionsUsed":["KHR_materials_unlit"],"extensionsRequired":["KHR_materials_unlit"],"scene":0,"scenes":[{"name":"Scene","nodes":[0,1]}],"nodes":[{"mesh":0,"name":"Cad_logo","rotation":[-0.7071065902709961,0,0,0.7071069478988647],"scale":[0.009999999776482582,0.010000000707805157,0.010000000707805157]},{"mesh":1,"name":"swb_esv_int_common","rotation":[0.7071068286895752,0,0,0.7071067094802856],"scale":[0.009999999776482582,0.009999999776482582,0.009999999776482582]}],"materials":[{"doubleSided":true,"emissiveFactor":[0,0,0],"name":"Chrome_Bright_dash_logo","pbrMetallicRoughness":{"baseColorFactor":[0.34838709235191345,0.34838709235191345,0.34838709235191345,1],"metallicFactor":1,"roughnessFactor":0}},{"doubleSided":true,"name":"Misc_Interior","pbrMetallicRoughness":{"baseColorFactor":[0.010879498906433582,0.010879498906433582,0.010879498906433582,1],"metallicFactor":0,"roughnessFactor":0.4412772059440613}},{"doubleSided":true,"name":"Paint_Black_Gloss","pbrMetallicRoughness":{"baseColorFactor":[0.0117647061124444,0.0117647061124444,0.0117647061124444,1],"metallicFactor":1,"roughnessFactor":-0.6733200550079346}},{"doubleSided":true,"name":"Chrome_Bright","pbrMetallicRoughness":{"baseColorFactor":[0.34838709235191345,0.34838709235191345,0.34838709235191345,1],"metallicFactor":1,"roughnessFactor":-2}},{"doubleSided":true,"name":"Graphics_Blue","pbrMetallicRoughness":{"baseColorFactor":[0,0,0.588240385055542,1],"metallicFactor":1,"roughnessFactor":1}},{"doubleSided":true,"name":"Misc_Primer","pbrMetallicRoughness":{"baseColorFactor":[0,0,0,1],"metallicFactor":0,"roughnessFactor":1}},{"doubleSided":true,"name":"Graphics_Red","pbrMetallicRoughness":{"baseColorFactor":[0.588240385055542,0,0,1],"metallicFactor":1,"roughnessFactor":1}},{"doubleSided":true,"extensions":{"KHR_materials_unlit":{}},"name":"Screens","pbrMetallicRoughness":{"baseColorTexture":{"index":0,"texCoord":0}}},{"doubleSided":true,"name":"Graphics_Grey","pbrMetallicRoughness":{"baseColorFactor":[0.0015176349552348256,0.0015176346059888601,0.0015176348388195038,1],"metallicFactor":0.8863636255264282,"roughnessFactor":1}},{"doubleSided":true,"name":"lambert11","pbrMetallicRoughness":{"baseColorTexture":{"index":1,"texCoord":0},"metallicFactor":1,"roughnessFactor":0.5527864098548889}},{"doubleSided":true,"name":"Graphics_Yellow","pbrMetallicRoughness":{"baseColorFactor":[0.588240385055542,0.49020183086395264,0,1],"metallicFactor":0.6272727251052856,"roughnessFactor":1}},{"doubleSided":true,"name":"wood","pbrMetallicRoughness":{"baseColorFactor":[0.052299998700618744,0.029899999499320984,0,1],"metallicFactor":0.5,"roughnessFactor":0.20000000298023224}},{"doubleSided":true,"extensions":{"KHR_materials_unlit":{}},"name":"REAR_HVAC","pbrMetallicRoughness":{"baseColorTexture":{"index":2,"texCoord":0}}},{"doubleSided":true,"name":"mirrors","pbrMetallicRoughness":{"baseColorFactor":[0.5,0.5,0.5,1],"metallicFactor":1,"roughnessFactor":0}},{"doubleSided":true,"extensions":{"KHR_materials_unlit":{}},"name":"FRONT_OLED_SCREEN","pbrMetallicRoughness":{"baseColorTexture":{"index":3,"texCoord":0}}},{"doubleSided":true,"extensions":{"KHR_materials_unlit":{}},"name":"BACK_SCREEN_MAIN_MENU","pbrMetallicRoughness":{"baseColorTexture":{"index":4,"texCoord":0}}}],"meshes":[{"name":"Dash_logo","primitives":[{"attributes":{"POSITION":0,"NORMAL":1,"TEXCOORD_0":2},"indices":3,"material":0}]},{"name":"Mesh","primitives":[{"attributes":{"POSITION":4,"NORMAL":5,"TEXCOORD_0":6,"TEXCOORD_1":7},"indices":8,"material":1},{"attributes":{"POSITION":9,"NORMAL":10,"TEXCOORD_0":11,"TEXCOORD_1":12},"indices":13,"material":1},{"attributes":{"POSITION":14,"NORMAL":15,"TEXCOORD_0":16,"TEXCOORD_1":17},"indices":18,"material":1},{"attributes":{"POSITION":19,"NORMAL":20,"TEXCOORD_0":21,"TEXCOORD_1":22},"indices":23,"material":2},{"attributes":{"POSITION":24,"NORMAL":25,"TEXCOORD_0":26,"TEXCOORD_1":27},"indices":28,"material":3},{"attributes":{"POSITION":29,"NORMAL":30,"TEXCOORD_0":31,"TEXCOORD_1":32},"indices":33,"material":4},{"attributes":{"POSITION":34,"NORMAL":35,"TEXCOORD_0":36,"TEXCOORD_1":37},"indices":38,"material":5},{"attributes":{"POSITION":39,"NORMAL":40,"TEXCOORD_0":41,"TEXCOORD_1":42},"indices":43,"material":6},{"attributes":{"POSITION":44,"NORMAL":45,"TEXCOORD_0":46,"TEXCOORD_1":47},"indices":48,"material":7},{"attributes":{"POSITION":49,"NORMAL":50,"TEXCOORD_0":51,"TEXCOORD_1":52},"indices":53,"material":8},{"attributes":{"POSITION":54,"NORMAL":55,"TEXCOORD_0":56,"TEXCOORD_1":57},"indices":58,"material":9},{"attributes":{"POSITION":59,"NORMAL":60,"TEXCOORD_0":61,"TEXCOORD_1":62},"indices":63,"material":10},{"attributes":{"POSITION":64,"NORMAL":65,"TEXCOORD_0":66,"TEXCOORD_1":67},"indices":68,"material":11},{"attributes":{"POSITION":69,"NORMAL":70,"TEXCOORD_0":71,"TEXCOORD_1":72},"indices":73,"material":12},{"attributes":{"POSITION":74,"NORMAL":75,"TEXCOORD_0":76,"TEXCOORD_1":77},"indices":78,"material":13},{"attributes":{"POSITION":79,"NORMAL":80,"TEXCOORD_0":81,"TEXCOORD_1":82},"indices":83,"material":14},{"attributes":{"POSITION":84,"NORMAL":85,"TEXCOORD_0":86,"TEXCOORD_1":87},"indices":88,"material":15}]}],"textures":[{"source":0},{"source":1},{"source":2},{"source":3},{"source":4}],"images":[{"mimeType":"image/jpeg","name":"Rear-RSE---Home","uri":"assets\\Rear-RSE---Home-203fded28449b8d849fb077e6a5ecdee.jpg"},{"mimeType":"image/png","name":"FRONT_HVAC","uri":"assets\\FRONT_HVAC-e0adc25a10a3df3a8c2a0660a722f589.png"},{"mimeType":"image/png","name":"REAR_HVAC","uri":"assets\\REAR_HVAC-dd7c2aeaf782a3de765e77d12da164f8.png"},{"mimeType":"image/jpeg","name":"FRONT_SCREEN_SPEEDOMETER_RADIO","uri":"assets\\FRONT_SCREEN_SPEEDOMETER_RADIO-49f042583f60ee36af04eacbf8b24ea8.jpg"},{"mimeType":"image/png","name":"BACK_SCREEN_MAIN_MENU","uri":"assets\\BACK_SCREEN_MAIN_MENU-e948e9baad8c75b266fbb18275ba75a3.png"}],"accessors":[{"bufferView":0,"componentType":5126,"count":2078,"max":[-111.73485565185547,-42.53732681274414,145.6897735595703],"min":[-111.9349136352539,-48.4552001953125,143.43978881835938],"type":"VEC3"},{"bufferView":1,"componentType":5126,"count":2078,"type":"VEC3"},{"bufferView":2,"componentType":5126,"count":2078,"type":"VEC2"},{"bufferView":3,"componentType":5123,"count":3654,"type":"SCALAR"},{"bufferView":4,"componentType":5126,"count":65535,"max":[92.501953125,89.5521240234375,-58.718467712402344],"min":[-153.09490966796875,-89.5521240234375,-186.28570556640625],"type":"VEC3"},{"bufferView":5,"componentType":5126,"count":65535,"type":"VEC3"},{"bufferView":6,"componentType":5126,"count":65535,"type":"VEC2"},{"bufferView":7,"componentType":5126,"count":65535,"type":"VEC2"},{"bufferView":8,"componentType":5123,"count":127353,"type":"SCALAR"},{"bufferView":9,"componentType":5126,"count":58873,"max":[92.501953125,93.02677154541016,-58.71844482421875],"min":[-154.17164611816406,-93.02677154541016,-185.0843048095703],"type":"VEC3"},{"bufferView":10,"componentType":5126,"count":58873,"type":"VEC3"},{"bufferView":11,"componentType":5126,"count":58873,"type":"VEC2"},{"bufferView":12,"componentType":5126,"count":58873,"type":"VEC2"},{"bufferView":13,"componentType":5123,"count":112638,"type":"SCALAR"},{"bufferView":14,"componentType":5126,"count":42,"max":[-0.515838623046875,71.4407958984375,-104.87714385986328],"min":[-27.664093017578125,63.2484130859375,-146.08302307128906],"type":"VEC3"},{"bufferView":15,"componentType":5126,"count":42,"type":"VEC3"},{"bufferView":16,"componentType":5126,"count":42,"type":"VEC2"},{"bufferView":17,"componentType":5126,"count":42,"type":"VEC2"},{"bufferView":18,"componentType":5123,"count":48,"type":"SCALAR"},{"bufferView":19,"componentType":5126,"count":7248,"max":[8.010025024414062,61.744117736816406,-144.17108154296875],"min":[-1.183199405670166,-61.744117736816406,-169.46563720703125],"type":"VEC3"},{"bufferView":20,"componentType":5126,"count":7248,"type":"VEC3"},{"bufferView":21,"componentType":5126,"count":7248,"type":"VEC2"},{"bufferView":22,"componentType":5126,"count":7248,"type":"VEC2"},{"bufferView":23,"componentType":5123,"count":10554,"type":"SCALAR"},{"bufferView":24,"componentType":5126,"count":8080,"max":[7.700923919677734,83.0489501953125,-109.54425811767578],"min":[-111.38595581054688,-83.0489501953125,-169.45310974121094],"type":"VEC3"},{"bufferView":25,"componentType":5126,"count":8080,"type":"VEC3"},{"bufferView":26,"componentType":5126,"count":8080,"type":"VEC2"},{"bufferView":27,"componentType":5126,"count":8080,"type":"VEC2"},{"bufferView":28,"componentType":5123,"count":15837,"type":"SCALAR"},{"bufferView":29,"componentType":5126,"count":151,"max":[-81.32786560058594,47.60309600830078,-133.51754760742188],"min":[-82.49626159667969,43.04938888549805,-135.03440856933594],"type":"VEC3"},{"bufferView":30,"componentType":5126,"count":151,"type":"VEC3"},{"bufferView":31,"componentType":5126,"count":151,"type":"VEC2"},{"bufferView":32,"componentType":5126,"count":151,"type":"VEC2"},{"bufferView":33,"componentType":5123,"count":189,"type":"SCALAR"},{"bufferView":34,"componentType":5126,"count":107,"max":[-139.22296142578125,72.127685546875,-135.0172576904297],"min":[-166.56765747070312,-73.7965087890625,-144.7162628173828],"type":"VEC3"},{"bufferView":35,"componentType":5126,"count":107,"type":"VEC3"},{"bufferView":36,"componentType":5126,"count":107,"type":"VEC2"},{"bufferView":37,"componentType":5126,"count":107,"type":"VEC2"},{"bufferView":38,"componentType":5123,"count":159,"type":"SCALAR"},{"bufferView":39,"componentType":5126,"count":126,"max":[-81.04765319824219,47.7143669128418,-133.27259826660156],"min":[-82.41888427734375,43.211326599121094,-135.17823791503906],"type":"VEC3"},{"bufferView":40,"componentType":5126,"count":126,"type":"VEC3"},{"bufferView":41,"componentType":5126,"count":126,"type":"VEC2"},{"bufferView":42,"componentType":5126,"count":126,"type":"VEC2"},{"bufferView":43,"componentType":5123,"count":150,"type":"SCALAR"},{"bufferView":44,"componentType":5126,"count":8,"max":[7.8547210693359375,59.552040100097656,-151.77442932128906],"min":[6.120355606079102,-59.552040100097656,-167.47889709472656],"type":"VEC3"},{"bufferView":45,"componentType":5126,"count":8,"type":"VEC3"},{"bufferView":46,"componentType":5126,"count":8,"type":"VEC2"},{"bufferView":47,"componentType":5126,"count":8,"type":"VEC2"},{"bufferView":48,"componentType":5123,"count":12,"type":"SCALAR"},{"bufferView":49,"componentType":5126,"count":62,"max":[-81.36152648925781,47.85413360595703,-133.70758056640625],"min":[-82.32511901855469,43.27177429199219,-134.84857177734375],"type":"VEC3"},{"bufferView":50,"componentType":5126,"count":62,"type":"VEC3"},{"bufferView":51,"componentType":5126,"count":62,"type":"VEC2"},{"bufferView":52,"componentType":5126,"count":62,"type":"VEC2"},{"bufferView":53,"componentType":5123,"count":96,"type":"SCALAR"},{"bufferView":54,"componentType":5126,"count":74,"max":[-93.97879028320312,19.920166015625,-122.38397979736328],"min":[-101.82666015625,-12.856689453125,-125.47383880615234],"type":"VEC3"},{"bufferView":55,"componentType":5126,"count":74,"type":"VEC3"},{"bufferView":56,"componentType":5126,"count":74,"type":"VEC2"},{"bufferView":57,"componentType":5126,"count":74,"type":"VEC2"},{"bufferView":58,"componentType":5123,"count":219,"type":"SCALAR"},{"bufferView":59,"componentType":5126,"count":259,"max":[-81.05502319335938,48.077552795410156,-133.24874877929688],"min":[-82.56733703613281,43.27716827392578,-135.17953491210938],"type":"VEC3"},{"bufferView":60,"componentType":5126,"count":259,"type":"VEC3"},{"bufferView":61,"componentType":5126,"count":259,"type":"VEC2"},{"bufferView":62,"componentType":5126,"count":259,"type":"VEC2"},{"bufferView":63,"componentType":5123,"count":498,"type":"SCALAR"},{"bufferView":64,"componentType":5126,"count":1412,"max":[-31.154861450195312,84.07201385498047,-105.8362045288086],"min":[-107.91932678222656,-84.07201385498047,-135.76023864746094],"type":"VEC3"},{"bufferView":65,"componentType":5126,"count":1412,"type":"VEC3"},{"bufferView":66,"componentType":5126,"count":1412,"type":"VEC2"},{"bufferView":67,"componentType":5126,"count":1412,"type":"VEC2"},{"bufferView":68,"componentType":5123,"count":4125,"type":"SCALAR"},{"bufferView":69,"componentType":5126,"count":18,"max":[-7.4564208984375,12.271568298339844,-108.97367858886719],"min":[-11.80291748046875,-12.268331527709961,-114.92508697509766],"type":"VEC3"},{"bufferView":70,"componentType":5126,"count":18,"type":"VEC3"},{"bufferView":71,"componentType":5126,"count":18,"type":"VEC2"},{"bufferView":72,"componentType":5126,"count":18,"type":"VEC2"},{"bufferView":73,"componentType":5123,"count":48,"type":"SCALAR"},{"bufferView":74,"componentType":5126,"count":207,"max":[-94.89599609375,12.4256591796875,-168.33609008789062],"min":[-94.9766845703125,-12.419921875,-174.11280822753906],"type":"VEC3"},{"bufferView":75,"componentType":5126,"count":207,"type":"VEC3"},{"bufferView":76,"componentType":5126,"count":207,"type":"VEC2"},{"bufferView":77,"componentType":5126,"count":207,"type":"VEC2"},{"bufferView":78,"componentType":5123,"count":273,"type":"SCALAR"},{"bufferView":79,"componentType":5126,"count":309,"max":[-106.25363159179688,67.7197265625,-129.44210815429688],"min":[-108.9757080078125,23.2218017578125,-144.457275390625],"type":"VEC3"},{"bufferView":80,"componentType":5126,"count":309,"type":"VEC3"},{"bufferView":81,"componentType":5126,"count":309,"type":"VEC2"},{"bufferView":82,"componentType":5126,"count":309,"type":"VEC2"},{"bufferView":83,"componentType":5123,"count":1086,"type":"SCALAR"},{"bufferView":84,"componentType":5126,"count":291,"max":[-99.54397583007812,79.187744140625,-130.8826446533203],"min":[-110.85012817382812,-15.7926025390625,-146.4056854248047],"type":"VEC3"},{"bufferView":85,"componentType":5126,"count":291,"type":"VEC3"},{"bufferView":86,"componentType":5126,"count":291,"type":"VEC2"},{"bufferView":87,"componentType":5126,"count":291,"type":"VEC2"},{"bufferView":88,"componentType":5123,"count":912,"type":"SCALAR"}],"bufferViews":[{"buffer":0,"byteLength":24936,"byteOffset":0},{"buffer":0,"byteLength":24936,"byteOffset":24936},{"buffer":0,"byteLength":16624,"byteOffset":49872},{"buffer":0,"byteLength":7308,"byteOffset":66496},{"buffer":0,"byteLength":786420,"byteOffset":73804},{"buffer":0,"byteLength":786420,"byteOffset":860224},{"buffer":0,"byteLength":524280,"byteOffset":1646644},{"buffer":0,"byteLength":524280,"byteOffset":2170924},{"buffer":0,"byteLength":254706,"byteOffset":2695204},{"buffer":0,"byteLength":706476,"byteOffset":2949912},{"buffer":0,"byteLength":706476,"byteOffset":3656388},{"buffer":0,"byteLength":470984,"byteOffset":4362864},{"buffer":0,"byteLength":470984,"byteOffset":4833848},{"buffer":0,"byteLength":225276,"byteOffset":5304832},{"buffer":0,"byteLength":504,"byteOffset":5530108},{"buffer":0,"byteLength":504,"byteOffset":5530612},{"buffer":0,"byteLength":336,"byteOffset":5531116},{"buffer":0,"byteLength":336,"byteOffset":5531452},{"buffer":0,"byteLength":96,"byteOffset":5531788},{"buffer":0,"byteLength":86976,"byteOffset":5531884},{"buffer":0,"byteLength":86976,"byteOffset":5618860},{"buffer":0,"byteLength":57984,"byteOffset":5705836},{"buffer":0,"byteLength":57984,"byteOffset":5763820},{"buffer":0,"byteLength":21108,"byteOffset":5821804},{"buffer":0,"byteLength":96960,"byteOffset":5842912},{"buffer":0,"byteLength":96960,"byteOffset":5939872},{"buffer":0,"byteLength":64640,"byteOffset":6036832},{"buffer":0,"byteLength":64640,"byteOffset":6101472},{"buffer":0,"byteLength":31674,"byteOffset":6166112},{"buffer":0,"byteLength":1812,"byteOffset":6197788},{"buffer":0,"byteLength":1812,"byteOffset":6199600},{"buffer":0,"byteLength":1208,"byteOffset":6201412},{"buffer":0,"byteLength":1208,"byteOffset":6202620},{"buffer":0,"byteLength":378,"byteOffset":6203828},{"buffer":0,"byteLength":1284,"byteOffset":6204208},{"buffer":0,"byteLength":1284,"byteOffset":6205492},{"buffer":0,"byteLength":856,"byteOffset":6206776},{"buffer":0,"byteLength":856,"byteOffset":6207632},{"buffer":0,"byteLength":318,"byteOffset":6208488},{"buffer":0,"byteLength":1512,"byteOffset":6208808},{"buffer":0,"byteLength":1512,"byteOffset":6210320},{"buffer":0,"byteLength":1008,"byteOffset":6211832},{"buffer":0,"byteLength":1008,"byteOffset":6212840},{"buffer":0,"byteLength":300,"byteOffset":6213848},{"buffer":0,"byteLength":96,"byteOffset":6214148},{"buffer":0,"byteLength":96,"byteOffset":6214244},{"buffer":0,"byteLength":64,"byteOffset":6214340},{"buffer":0,"byteLength":64,"byteOffset":6214404},{"buffer":0,"byteLength":24,"byteOffset":6214468},{"buffer":0,"byteLength":744,"byteOffset":6214492},{"buffer":0,"byteLength":744,"byteOffset":6215236},{"buffer":0,"byteLength":496,"byteOffset":6215980},{"buffer":0,"byteLength":496,"byteOffset":6216476},{"buffer":0,"byteLength":192,"byteOffset":6216972},{"buffer":0,"byteLength":888,"byteOffset":6217164},{"buffer":0,"byteLength":888,"byteOffset":6218052},{"buffer":0,"byteLength":592,"byteOffset":6218940},{"buffer":0,"byteLength":592,"byteOffset":6219532},{"buffer":0,"byteLength":438,"byteOffset":6220124},{"buffer":0,"byteLength":3108,"byteOffset":6220564},{"buffer":0,"byteLength":3108,"byteOffset":6223672},{"buffer":0,"byteLength":2072,"byteOffset":6226780},{"buffer":0,"byteLength":2072,"byteOffset":6228852},{"buffer":0,"byteLength":996,"byteOffset":6230924},{"buffer":0,"byteLength":16944,"byteOffset":6231920},{"buffer":0,"byteLength":16944,"byteOffset":6248864},{"buffer":0,"byteLength":11296,"byteOffset":6265808},{"buffer":0,"byteLength":11296,"byteOffset":6277104},{"buffer":0,"byteLength":8250,"byteOffset":6288400},{"buffer":0,"byteLength":216,"byteOffset":6296652},{"buffer":0,"byteLength":216,"byteOffset":6296868},{"buffer":0,"byteLength":144,"byteOffset":6297084},{"buffer":0,"byteLength":144,"byteOffset":6297228},{"buffer":0,"byteLength":96,"byteOffset":6297372},{"buffer":0,"byteLength":2484,"byteOffset":6297468},{"buffer":0,"byteLength":2484,"byteOffset":6299952},{"buffer":0,"byteLength":1656,"byteOffset":6302436},{"buffer":0,"byteLength":1656,"byteOffset":6304092},{"buffer":0,"byteLength":546,"byteOffset":6305748},{"buffer":0,"byteLength":3708,"byteOffset":6306296},{"buffer":0,"byteLength":3708,"byteOffset":6310004},{"buffer":0,"byteLength":2472,"byteOffset":6313712},{"buffer":0,"byteLength":2472,"byteOffset":6316184},{"buffer":0,"byteLength":2172,"byteOffset":6318656},{"buffer":0,"byteLength":3492,"byteOffset":6320828},{"buffer":0,"byteLength":3492,"byteOffset":6324320},{"buffer":0,"byteLength":2328,"byteOffset":6327812},{"buffer":0,"byteLength":2328,"byteOffset":6330140},{"buffer":0,"byteLength":1824,"byteOffset":6332468}],"buffers":[{"byteLength":6334292,"uri":"assets\\swb_esv_int_common-88a98aadbe57b494c29f0db4ef98563b.bin"}]}